<svg xmlns="http://www.w3.org/2000/svg" viewBox="-56 -56 112 112"><path fill="#000" d="M54.2 0.0 L52.9 3.5 L49.6 6.5 L46.1 9.2 L44.2 11.8 L44.5 15.1 L46.2 19.1 L47.5 23.4 L47.0 27.1 L44.1 29.4 L39.7 30.4 L35.3 31.0 L32.4 32.4 L31.0 35.3 L30.4 39.7 L29.4 44.1 L27.1 47.0 L23.4 47.5 L19.1 46.2 L15.1 44.5 L11.8 44.2 L9.2 46.1 L6.5 49.6 L3.5 52.9 L0.0 54.2 L-3.5 52.9 L-6.5 49.6 L-9.2 46.1 L-11.8 44.2 L-15.1 44.5 L-19.1 46.2 L-23.4 47.5 L-27.1 47.0 L-29.4 44.1 L-30.4 39.7 L-31.0 35.3 L-32.4 32.4 L-35.3 31.0 L-39.7 30.4 L-44.1 29.4 L-47.0 27.1 L-47.5 23.4 L-46.2 19.1 L-44.5 15.1 L-44.2 11.8 L-46.1 9.2 L-49.6 6.5 L-52.9 3.5 L-54.2 0.0 L-52.9 -3.5 L-49.6 -6.5 L-46.1 -9.2 L-44.2 -11.8 L-44.5 -15.1 L-46.2 -19.1 L-47.5 -23.4 L-47.0 -27.1 L-44.1 -29.4 L-39.7 -30.4 L-35.3 -31.0 L-32.4 -32.4 L-31.0 -35.3 L-30.4 -39.7 L-29.4 -44.1 L-27.1 -47.0 L-23.4 -47.5 L-19.1 -46.2 L-15.1 -44.5 L-11.8 -44.2 L-9.2 -46.1 L-6.5 -49.6 L-3.5 -52.9 L-0.0 -54.2 L3.5 -52.9 L6.5 -49.6 L9.2 -46.1 L11.8 -44.2 L15.1 -44.5 L19.1 -46.2 L23.4 -47.5 L27.1 -47.0 L29.4 -44.1 L30.4 -39.7 L31.0 -35.3 L32.4 -32.4 L35.3 -31.0 L39.7 -30.4 L44.1 -29.4 L47.0 -27.1 L47.5 -23.4 L46.2 -19.1 L44.5 -15.1 L44.2 -11.8 L46.1 -9.2 L49.6 -6.5 L52.9 -3.5 Z"/></svg>