<svg xmlns="http://www.w3.org/2000/svg" style="display:none"><symbol id="mk-social_comparison" viewBox="0 0 24 24"><g stroke="currentColor" stroke-width="1.7" stroke-linecap="round" stroke-linejoin="round" fill="none"><path d="M4 20h16"/><rect x="6" y="11" width="4" height="9"/><rect x="14" y="4" width="4" height="16"/><path d="M8 8.5a7 7 0 0 1 5-4"/></g></symbol><symbol id="mk-dopamine_loop" viewBox="0 0 24 24"><g stroke="currentColor" stroke-width="1.7" stroke-linecap="round" stroke-linejoin="round" fill="none"><g transform="rotate(-45 12 12)"><path d="M2.6 12h3.4"/><path d="M8 9.8v4.4"/><rect x="8" y="9.6" width="7.4" height="4.8" rx="0.8"/><path d="M10.6 9.6v4.8M13 9.6v4.8" opacity="0.45"/><path d="M15.4 12h3.2"/><path d="M18.6 9.9v4.2"/></g></g></symbol><symbol id="mk-digital_compulsion" viewBox="0 0 24 24"><g stroke="currentColor" stroke-width="1.7" stroke-linecap="round" stroke-linejoin="round" fill="none"><path d="M4 16.5 L7.5 16.5 Q10.5 16.5 12 14.5 Q13.3 12.7 13.3 10.5 L13.3 8 L16 8 Q17.4 8 17.4 6.6 L17.4 5 Q17.4 3.6 16 3.6 L12.4 3.6 Q11 3.6 11 5 L11 7.6 Q6 7.4 4 12.5 Z"/></g></symbol><symbol id="mk-validation_hunger" viewBox="0 0 24 24"><g stroke="currentColor" stroke-width="1.7" stroke-linecap="round" stroke-linejoin="round" fill="none"><rect x="4" y="4" width="16" height="16" rx="1.3"/><path d="M4 8.5h16"/><path d="M4 13h16"/><g fill="currentColor" stroke="none"><circle cx="7" cy="8.5" r="1.15"/><circle cx="9.4" cy="8.5" r="1.15"/><circle cx="16.6" cy="8.5" r="1.15"/><circle cx="7" cy="13" r="1.15"/><circle cx="14.2" cy="13" r="1.15"/><circle cx="16.6" cy="13" r="1.15"/><circle cx="7" cy="17.5" r="1.15"/><circle cx="9.4" cy="17.5" r="1.15"/><circle cx="16.6" cy="17.5" r="1.15"/></g></g></symbol><symbol id="mk-social_fatigue" viewBox="0 0 24 24"><g stroke="currentColor" stroke-width="1.7" stroke-linecap="round" stroke-linejoin="round" fill="none"><rect x="3" y="9" width="15" height="7" rx="1.5"/><path d="M20.5 11v3"/><path d="M6 11.5v2"/><path d="M9.5 11.5v2" opacity="0.3"/></g></symbol><symbol id="mk-avoidance" viewBox="0 0 24 24"><g stroke="currentColor" stroke-width="1.7" stroke-linecap="round" stroke-linejoin="round" fill="none"><path d="M4 18c7 0 6.5-11 14-12"/><path d="M15.2 4.4L18.2 6l-1.6 3"/><path d="M7.5 6.5l3.5 3.5M11 6.5L7.5 10" opacity="0.5"/></g></symbol><symbol id="mk-ambition_drive" viewBox="0 0 24 24"><g stroke="currentColor" stroke-width="1.7" stroke-linecap="round" stroke-linejoin="round" fill="none"><path d="M5 17l1.5-9L11 12l1-7 1 7 4.5-4L19 17z"/><path d="M5 20h14"/></g></symbol><symbol id="mk-performance_pressure" viewBox="0 0 24 24"><g stroke="currentColor" stroke-width="1.7" stroke-linecap="round" stroke-linejoin="round" fill="none"><circle cx="12" cy="12" r="8"/><path d="M12 12l3.5-4.5"/><circle cx="12" cy="12" r="1.1" fill="currentColor" stroke="none"/><path d="M12 4v2M20 12h-2M12 20v-2M4 12h2" opacity="0.6"/></g></symbol><symbol id="mk-identity_split" viewBox="0 0 24 24"><g stroke="currentColor" stroke-width="1.7" stroke-linecap="round" stroke-linejoin="round" fill="none"><circle cx="12" cy="12" r="8.2"/><path d="M12 3.8v16.4" stroke-dasharray="2 2.4" opacity="0.55"/><circle cx="8.3" cy="10" r="1" fill="currentColor" stroke="none"/><path d="M6.8 14.4c1.5 1.5 3.3 1.8 4.8 1"/></g></symbol><symbol id="mk-image_management" viewBox="0 0 24 24"><g stroke="currentColor" stroke-width="1.7" stroke-linecap="round" stroke-linejoin="round" fill="none"><circle cx="12" cy="14" r="5"/><ellipse cx="12" cy="5.5" rx="5" ry="1.8"/></g></symbol><symbol id="mk-procrastination_loop" viewBox="0 0 24 24"><g stroke="currentColor" stroke-width="1.7" stroke-linecap="round" stroke-linejoin="round" fill="none"><path d="M12 4a8 8 0 1 1-7.4 4.9"/><path d="M4 4v5h5"/></g></symbol><symbol id="mk-belief_filter" viewBox="0 0 24 24"><g stroke="currentColor" stroke-width="1.7" stroke-linecap="round" stroke-linejoin="round" fill="none"><path d="M4 5h16l-6 7v5.5l-4 2.5v-8z"/><path d="M8 2.5h.01M12 2h.01M16 2.5h.01" opacity="0.6"/></g></symbol><symbol id="mk-attention_to_action" viewBox="0 0 24 24"><g stroke="currentColor" stroke-width="1.7" stroke-linecap="round" stroke-linejoin="round" fill="none"><path d="M13 3L6 13.5h4.5L10 21l7-10.5h-4.5z"/></g></symbol><symbol id="mk-boundary_signal" viewBox="0 0 24 24"><g stroke="currentColor" stroke-width="1.7" stroke-linecap="round" stroke-linejoin="round" fill="none"><path d="M12 4v16" stroke-dasharray="3.2 3"/><circle cx="6.5" cy="12" r="1.4" fill="currentColor" stroke="none"/><circle cx="17.5" cy="12" r="1.4" fill="currentColor" stroke="none" opacity="0.35"/></g></symbol><symbol id="mk-persuasion_frame" viewBox="0 0 24 24"><g stroke="currentColor" stroke-width="1.7" stroke-linecap="round" stroke-linejoin="round" fill="none"><path d="M4 8h12M4 13h12M4 18h12"/><path d="M14 5.5L17 8l-3 2.5M14 10.5L17 13l-3 2.5M14 15.5L17 18l-3 2.5"/></g></symbol><symbol id="mk-scarcity_pressure" viewBox="0 0 24 24"><g stroke="currentColor" stroke-width="1.7" stroke-linecap="round" stroke-linejoin="round" fill="none"><path d="M7 3h10M7 21h10M8 3c0 5 8 5 8 9M16 3c0 5-8 5-8 9M8 21c0-5 3.2-5.4 4-6M16 21c0-3-1-4.5-2-5.4"/></g></symbol><symbol id="mk-trust_deficit" viewBox="0 0 24 24"><g stroke="currentColor" stroke-width="1.7" stroke-linecap="round" stroke-linejoin="round" fill="none"><circle cx="6" cy="9" r="3"/><circle cx="18" cy="9" r="3" opacity="0.45"/><path d="M9.5 9h4"/><path d="M12.2 7.5L14 9l-1.8 1.5"/><path d="M4 17c0-2 1-3 2-3s2 1 2 3" opacity="0.8"/></g></symbol><symbol id="mk-isolation_pattern" viewBox="0 0 24 24"><g stroke="currentColor" stroke-width="1.7" stroke-linecap="round" stroke-linejoin="round" fill="none"><circle cx="12" cy="12" r="8"/><circle cx="9" cy="10" r="1" fill="currentColor" stroke="none"/><circle cx="15" cy="9" r="1" fill="currentColor" stroke="none" opacity="0.55"/><circle cx="10" cy="15" r="1" fill="currentColor" stroke="none" opacity="0.4"/><circle cx="15" cy="14.5" r="1" fill="currentColor" stroke="none" opacity="0.25"/></g></symbol><symbol id="mk-metacognition" viewBox="0 0 24 24"><g stroke="currentColor" stroke-width="1.7" stroke-linecap="round" stroke-linejoin="round" fill="none"><path d="M12 4.4a5.2 5.2 0 0 0-5.2 5.2v4.8a4 4 0 0 0 5.2 3.8"/><path d="M9 8.8c1.5-.2 1.7 1.9.2 2.1M9.2 12.8c1.5-.2 1.7 1.9.2 2.1" opacity="0.75"/><path d="M12 4v16" opacity="0.4"/><path d="M12 9h3.4M15.4 9v2.6M15.4 11.6H19"/><path d="M12 14.6h3M15 14.6v3"/><g fill="currentColor" stroke="none"><circle cx="15.4" cy="9" r="1.1"/><circle cx="19" cy="11.6" r="1.1"/><circle cx="15" cy="17.6" r="1.1"/></g></g></symbol></svg>
