<svg xmlns="http://www.w3.org/2000/svg" style="display:none"><symbol id="mk-habit" viewBox="0 0 24 24"><g stroke="currentColor" stroke-width="1.7" stroke-linecap="round" stroke-linejoin="round" fill="none"><path d="M3 8s3.5-4 9-4 9 4 9 4-3.5 4-9 4-9-4-9-4z"/><circle cx="12" cy="8" r="2.1"/><path d="M12 14.5v5"/><path d="M9.4 17l2.6 2.6 2.6-2.6"/></g></symbol><symbol id="mk-greener" viewBox="0 0 24 24"><g stroke="currentColor" stroke-width="1.7" stroke-linecap="round" stroke-linejoin="round" fill="none"><path d="M2 20h20"/><path d="M12 6v14"/><path d="M8 10h8"/><path d="M5 20v-3M8 20v-4M16 20v-6M19 20v-4.5"/></g></symbol><symbol id="mk-joneses" viewBox="0 0 24 24"><g stroke="currentColor" stroke-width="1.7" stroke-linecap="round" stroke-linejoin="round" fill="none"><path d="M2 21h20"/><path d="M3 21v-6l3.5-3 3.5 3v6z"/><path d="M13 21v-7l3.5-3 3.5 3v7z"/></g></symbol><symbol id="mk-tomorrow" viewBox="0 0 24 24"><g stroke="currentColor" stroke-width="1.7" stroke-linecap="round" stroke-linejoin="round" fill="none"><circle cx="12" cy="13" r="7"/><path d="M12 13V9M12 13l3 2"/><path d="M5 4L3 6.5M19 4l2 2.5"/></g></symbol><symbol id="mk-rug" viewBox="0 0 24 24"><g stroke="currentColor" stroke-width="1.7" stroke-linecap="round" stroke-linejoin="round" fill="none"><path d="M3 18h11"/><path d="M6 18c1-3 4-3 5 0"/><path d="M18 5l-5 9"/><path d="M11 13l4 2.5 2.5-4-4-2.5z"/></g></symbol><symbol id="mk-safe" viewBox="0 0 24 24"><g stroke="currentColor" stroke-width="1.7" stroke-linecap="round" stroke-linejoin="round" fill="none"><path d="M12 3l7 3v6c0 4.5-3.5 6.8-7 8.5-3.5-1.7-7-4-7-8.5V6z"/><path d="M9 12l2 2 4-4"/></g></symbol><symbol id="mk-bottle" viewBox="0 0 24 24"><g stroke="currentColor" stroke-width="1.7" stroke-linecap="round" stroke-linejoin="round" fill="none"><path d="M10 3h4v2.5l1.2 2.3V20a1 1 0 0 1-1 1h-4.4a1 1 0 0 1-1-1V7.8L10 5.5z"/><path d="M9.8 5.5h4.4"/></g></symbol><symbol id="mk-moderation" viewBox="0 0 24 24"><g stroke="currentColor" stroke-width="1.7" stroke-linecap="round" stroke-linejoin="round" fill="none"><path d="M12 4v16M7 20h10"/><path d="M4 8h16"/><path d="M4 8l-2.2 4.5h4.4zM20 8l-2.2 4.5h4.4z"/></g></symbol><symbol id="mk-birds" viewBox="0 0 24 24"><g stroke="currentColor" stroke-width="1.7" stroke-linecap="round" stroke-linejoin="round" fill="none"><path d="M2 10c2-2.4 4-2.4 5.5 0 1.5-2.4 3.5-2.4 5.5 0"/><path d="M11 15c2-2.4 4-2.4 5.5 0 1.5-2.4 3.5-2.4 5.5 0"/></g></symbol></svg>
